# File produced by Open Asset Import Library (http://www.assimp.sf.net)
# (assimp v3.1.24787357)

adobe_mdllib Adobe Standard Material.mdl

# 106 vertex positions
v  -68.828 41.391 31.8172
v  -70.2561 2.31513 33.5097
v  -63.4372 2.31513 33.5097
v  -62.6453 42.584 31.8172
v  -54.951 44.0688 31.8172
v  -54.951 2.31513 33.5097
v  -46.0606 2.31513 33.5097
v  -46.8902 42.5133 31.8172
v  -65.361 142.869 21.7616
v  -65.361 136.252 27.7086
v  -60.723 140.342 27.7086
v  -60.723 147.905 21.7616
v  -54.951 154.172 21.7616
v  -54.951 145.431 27.7086
v  -48.9041 140.099 27.7086
v  -48.9041 147.607 21.7616
v  -65.361 141.729 7.95695
v  -65.361 149.979 15.3718
v  -60.723 156.032 15.3718
v  -60.723 146.601 7.95695
v  -54.951 152.665 7.95695
v  -54.951 163.564 15.3718
v  -48.9041 155.673 15.3718
v  -48.9041 146.313 7.95695
v  -70.2561 2.31513 -2.7661
v  -68.828 41.391 -1.07364
v  -62.6453 42.584 -1.07364
v  -63.4372 2.31513 -2.7661
v  -54.951 2.31513 -2.7661
v  -54.951 44.0688 -1.07364
v  -46.8902 42.5133 -1.07364
v  -46.0606 2.31513 -2.7661
v  -70.2561 2.31513 15.3718
v  -70.2561 2.31513 4.47027
v  -63.4372 2.31513 4.47027
v  -63.4372 2.31513 15.3718
v  -54.951 2.31513 15.3718
v  -54.951 2.31513 4.47027
v  -46.0606 2.31513 4.47027
v  -46.0606 2.31513 15.3718
v  -70.2561 2.31513 24.7663
v  -63.4372 2.31513 24.7663
v  -54.951 2.31513 24.7663
v  -46.0606 2.31513 24.7663
v  -41.074 45.3957 15.3718
v  -39.6459 2.31513 15.3718
v  -39.6459 2.31513 4.47027
v  -41.074 42.9887 5.4875
v  -41.074 41.391 31.8172
v  -39.6459 2.31513 33.5097
v  -39.6459 2.31513 24.7663
v  -41.074 43.3215 23.8897
v  -68.828 42.9887 5.4875
v  -68.828 45.3957 15.3718
v  -68.828 43.3215 23.8897
v  -54.951 125.752 28.5062
v  -48.5131 121.153 28.5062
v  -66.0341 117.835 28.5062
v  -61.0962 121.362 28.5062
v  -66.0341 123.542 22.1747
v  -66.0341 122.559 7.47752
v  -66.0341 129.674 15.3718
v  -66.0341 117.835 2.23735
v  -65.361 136.252 3.03503
v  -60.723 140.342 3.03503
v  -61.0962 121.362 2.23735
v  -54.951 125.752 2.23735
v  -54.951 145.431 3.03503
v  -48.9041 140.099 3.03503
v  -48.5131 121.153 2.23735
v  -44.541 149.979 15.3718
v  -43.8679 129.674 15.3718
v  -43.8679 122.559 7.47752
v  -44.541 141.729 7.95695
v  -44.541 136.252 27.7086
v  -43.8679 117.835 28.5062
v  -43.8679 123.542 22.1747
v  -44.541 142.869 21.7616
v  -41.074 41.391 -1.07364
v  -39.6459 2.31513 -2.7661
v  -43.8679 117.835 2.23735
v  -44.541 136.252 3.03503
v  -54.951 113.462 24.4359
v  -54.951 57.0923 26.7208
v  -49.3882 56.0189 26.7208
v  -50.5082 110.288 24.4359
v  -62.5995 111.258 9.92394
v  -64.5275 56.347 8.55063
v  -64.5275 58.008 15.3718
v  -62.5995 116.169 15.3718
v  -54.951 57.0923 4.02279
v  -54.951 113.462 6.3077
v  -50.5082 110.288 6.3077
v  -49.3882 56.0189 4.02279
v  -47.3025 116.169 15.3718
v  -45.3745 58.008 15.3718
v  -45.3745 56.347 8.55063
v  -47.3025 111.258 9.92394
v  -64.5275 56.5766 21.25
v  -62.5995 111.937 20.0665
v  -47.3025 111.937 20.0665
v  -45.3745 56.5766 21.25
v  -60.2609 56.0677 4.02279
v  -59.1918 110.433 6.3077
v  -59.1918 110.433 24.4359
v  -60.2609 56.0677 26.7208

# 167 UV coordinates
vt 0.482807 0.194822 0
vt 0.473833 0.0019481 0
vt 0.51668 0.0019481 0
vt 0.521656 0.20071 0
vt 0.570004 0.208039 0
vt 0.570004 0.0019481 0
vt 0.625867 0.0019481 0
vt 0.620654 0.200361 0
vt 0.504592 0.695707 0
vt 0.504592 0.663046 0
vt 0.533735 0.683231 0
vt 0.533735 0.720563 0
vt 0.570004 0.751496 0
vt 0.570004 0.70835 0
vt 0.608 0.682034 0
vt 0.608 0.719089 0
vt 0.0693707 0.690077 0
vt 0.115962 0.730799 0
vt 0.115962 0.760674 0
vt 0.0693707 0.714128 0
vt 0.398572 0.744059 0
vt 0.35198 0.797854 0
vt 0.35198 0.758903 0
vt 0.398572 0.712702 0
vt 0.672626 0.744059 0
vt 0.6816 0.551185 0
vt 0.720449 0.545297 0
vt 0.715473 0.744059 0
vt 0.768797 0.744059 0
vt 0.768797 0.537968 0
vt 0.819447 0.545646 0
vt 0.82466 0.744059 0
vt 0.700635 0.862021 0
vt 0.700635 0.793521 0
vt 0.743482 0.793521 0
vt 0.743482 0.862021 0
vt 0.796805 0.862021 0
vt 0.796805 0.793521 0
vt 0.852669 0.793521 0
vt 0.852669 0.862021 0
vt 0.700635 0.975991 0
vt 0.700635 0.921051 0
vt 0.743482 0.921051 0
vt 0.743482 0.975991 0
vt 0.796805 0.975991 0
vt 0.796805 0.921051 0
vt 0.852669 0.921051 0
vt 0.852669 0.975991 0
vt 0.35198 0.214588 0
vt 0.35198 0.0019481 0
vt 0.42048 0.0019481 0
vt 0.414089 0.202708 0
vt 0.248645 0.194822 0
vt 0.23801 0.0019481 0
vt 0.29295 0.0019481 0
vt 0.298458 0.20435 0
vt 0.0538538 0.202708 0
vt 0.047462 0.0019481 0
vt 0.115962 0.0019481 0
vt 0.115962 0.214588 0
vt 0.169484 0.20435 0
vt 0.174993 0.0019481 0
vt 0.229932 0.0019481 0
vt 0.219298 0.194822 0
vt 0.570004 0.611216 0
vt 0.610457 0.588519 0
vt 0.500363 0.572142 0
vt 0.53139 0.589551 0
vt 0.156113 0.695707 0
vt 0.158709 0.600311 0
vt 0.198493 0.572142 0
vt 0.193481 0.663046 0
vt 0.0663581 0.595456 0
vt 0.115962 0.630578 0
vt 0.699156 0.173865 0
vt 0.703385 0.0829609 0
vt 0.732528 0.0627766 0
vt 0.730183 0.156456 0
vt 0.768797 0.134791 0
vt 0.768797 0.0376573 0
vt 0.806793 0.0639732 0
vt 0.80925 0.157488 0
vt 0.35198 0.730799 0
vt 0.35198 0.630578 0
vt 0.401584 0.595456 0
vt 0.398572 0.690077 0
vt 0.274462 0.663046 0
vt 0.26945 0.572142 0
vt 0.309234 0.600311 0
vt 0.31183 0.695707 0
vt 0.31183 0.751496 0
vt 0.31183 0.719089 0
vt 0.156113 0.720563 0
vt 0.768797 0.00194814 0
vt 0.806793 0.033305 0
vt 0.703385 0.0559302 0
vt 0.732528 0.0318794 0
vt 0.0384436 0.663046 0
vt 0.0334314 0.572142 0
vt 0.0126267 0.194822 0
vt 0.00199203 0.0019481 0
vt 0.700635 0.748051 0
vt 0.743482 0.748051 0
vt 0.796805 0.748051 0
vt 0.852669 0.748051 0
vt 0.455316 0.194822 0
vt 0.46595 0.0019481 0
vt 0.434511 0.572142 0
vt 0.429499 0.663046 0
vt 0.635415 0.663046 0
vt 0.635415 0.695707 0
vt 0.834208 0.0829609 0
vt 0.834208 0.0559302 0
vt 0.838438 0.173865 0
vt 0.855993 0.551185 0
vt 0.864967 0.744059 0
vt 0.892976 0.793521 0
vt 0.892976 0.748051 0
vt 0.892976 0.862021 0
vt 0.892976 0.921051 0
vt 0.892976 0.975991 0
vt 0.6572 0.194822 0
vt 0.666174 0.0019481 0
vt 0.639645 0.572142 0
vt 0.115962 0.797854 0
vt 0.156113 0.751496 0
vt 0.0693707 0.744059 0
vt 0.570004 0.550555 0
vt 0.570004 0.272321 0
vt 0.604958 0.267023 0
vt 0.59792 0.534891 0
vt 0.0817304 0.539679 0
vt 0.0731011 0.268643 0
vt 0.115962 0.276841 0
vt 0.115962 0.563916 0
vt 0.768797 0.473686 0
vt 0.768797 0.195453 0
vt 0.796713 0.211116 0
vt 0.803751 0.478984 0
vt 0.35198 0.563916 0
vt 0.35198 0.276841 0
vt 0.394841 0.268643 0
vt 0.386212 0.539679 0
vt 0.152898 0.269776 0
vt 0.145462 0.543029 0
vt 0.322481 0.543029 0
vt 0.315045 0.269776 0
vt 0.735432 0.478743 0
vt 0.742149 0.210404 0
vt 0.543356 0.535603 0
vt 0.536639 0.267264 0
vt 0.965985 0.461442 0
vt 0.998008 0.39478 0
vt 0.977203 0.782937 0
vt 0.951627 0.72931 0
vt 0.917801 0.336841 0
vt 0.892224 0.390788 0
vt 0.87142 0.00194808 0
vt 0.903443 0.0685017 0
vt 0.945492 0.72931 0
vt 0.919916 0.782937 0
vt 0.899111 0.39478 0
vt 0.931135 0.461442 0
vt 0.938399 0.0685017 0
vt 0.970422 0.00194808 0
vt 0.949618 0.390788 0
vt 0.924041 0.336841 0

# 205 vertex normals
vn -0.0120216 0.0429549 0.999005
vn -0.00392118 0.0427314 0.999079
vn -0.00384663 0.0419197 0.999114
vn -0.0102417 0.0424043 0.999048
vn 8.8151e-05 0.0412887 0.999147
vn 8.81508e-05 0.0412887 0.999147
vn 0.00384663 0.0419201 0.999114
vn 0.0100107 0.0424038 0.99905
vn -0.564205 0.530584 0.632577
vn -0.534356 0.543195 0.647613
vn -0.520368 0.528975 0.670375
vn -0.555253 0.50947 0.657369
vn 0.0154718 0.589945 0.807295
vn 0.0135001 0.589961 0.807319
vn 0.520349 0.528956 0.670404
vn 0.554659 0.509709 0.657686
vn -0.564356 0.530517 -0.632498
vn -0.763254 0.643581 -0.0569747
vn -0.762975 0.643345 -0.0630581
vn -0.556133 0.510189 -0.656067
vn 0.0154218 0.589945 -0.807296
vn 0.0274345 0.994503 -0.101053
vn 0.762977 0.643347 -0.0630101
vn 0.555554 0.510406 -0.656388
vn -0.00392118 0.0427314 -0.999079
vn -0.0120214 0.0429549 -0.999005
vn -0.0102415 0.0424043 -0.999048
vn -0.00384661 0.0419197 -0.999114
vn 8.81677e-05 0.0412887 -0.999147
vn 8.81678e-05 0.0412887 -0.999147
vn 0.0100106 0.0424038 -0.99905
vn 0.00384664 0.0419201 -0.999114
vn 0 -1 0
vn 0.99942 0.0340654 -0.000292908
vn 0.99942 0.0340654 -0.000292908
vn 0.999385 0.0348453 -0.00403503
vn 0.999318 0.0354307 -0.0104305
vn 0.999272 0.0360418 0.0125001
vn 0.999351 0.0357764 0.00414283
vn 0.999385 0.0348433 0.0040348
vn 0.999309 0.0354319 0.0112024
vn -0.999318 0.0354307 -0.0104305
vn -0.999385 0.0348453 -0.00403503
vn -0.99942 0.0340654 -0.000292922
vn -0.99942 0.0340654 -0.000292921
vn -0.999309 0.0354319 0.0112024
vn -0.999385 0.0348433 0.0040348
vn -0.999351 0.0357765 0.00414287
vn -0.999272 0.0360418 0.0125001
vn 0.000769234 0.0415779 0.999135
vn 0.000769233 0.0415779 0.999135
vn 0.0248793 0.0430071 0.998765
vn 0.0334396 0.0420434 0.998556
vn -0.0346493 0.0435643 0.99845
vn -0.0197622 0.0431659 0.998872
vn -0.0246981 0.0429821 0.99877
vn -0.03343 0.0420312 0.998557
vn -0.998778 0.0348813 0.0350105
vn -0.998997 0.0361447 0.0264284
vn -0.999125 0.0363013 0.0207512
vn -0.99864 0.0368031 0.0369394
vn -0.998774 0.0349398 -0.0350693
vn -0.998978 0.0362492 -0.0270129
vn -0.999404 0.0344119 -0.00256467
vn -0.999404 0.0344119 -0.00256469
vn -0.019762 0.0431658 -0.998872
vn -0.0346493 0.0435643 -0.99845
vn -0.0334299 0.0420312 -0.998557
vn -0.0246979 0.0429821 -0.99877
vn 0.00076938 0.0415779 -0.999135
vn 0.000769381 0.0415779 -0.999135
vn 0.0334398 0.0420434 -0.998556
vn 0.0248791 0.0430071 -0.998765
vn 0.999404 0.0344123 -0.00256473
vn 0.999404 0.0344123 -0.00256472
vn 0.998978 0.0362494 -0.0270131
vn 0.998774 0.0349402 -0.0350696
vn 0.99864 0.0368035 0.0369398
vn 0.999125 0.0363013 0.0207512
vn 0.998997 0.0361448 0.0264285
vn 0.998778 0.0348816 0.0350108
vn 0.0132586 0.589963 -0.807321
vn 0.513515 0.531512 -0.673644
vn -0.527478 0.545965 -0.650914
vn -0.513534 0.531532 -0.673614
vn -0.998623 0.0370288 -0.0371661
vn -0.999116 0.0364927 -0.0208606
vn -0.999265 0.036216 -0.0125605
vn -0.999346 0.0359335 -0.00416102
vn 0.999265 0.036216 -0.0125605
vn 0.999346 0.0359335 -0.00416102
vn 0.999116 0.0364927 -0.0208607
vn 0.998623 0.0370292 -0.0371664
vn 0.535243 0.544097 0.646121
vn 0.565099 0.531424 0.631072
vn 0.763265 0.643589 -0.0567497
vn 0.56525 0.531357 -0.630993
vn 0.528363 0.54688 -0.649427
vn 0.0197839 0.0432143 -0.99887
vn 0.0346939 0.0436207 -0.998446
vn 0.0120336 0.0429992 -0.999003
vn 0.00392475 0.0427714 -0.999077
vn 0.0120338 0.0429992 0.999003
vn 0.00392471 0.0427714 0.999077
vn 0.0197843 0.0432143 0.99887
vn 0.034694 0.0436207 0.998446
vn 0.000408919 0.041425 0.999142
vn 0.000408905 0.041425 0.999142
vn 0.0175887 0.0414401 0.998986
vn -0.999243 0.0343003 -0.0183721
vn -0.999243 0.0343003 -0.0183721
vn -0.999413 0.0342285 -0.00136134
vn -0.999413 0.0342285 -0.00136136
vn 0.000408982 0.041425 -0.999142
vn 0.000408995 0.041425 -0.999142
vn 0.0175887 0.04144 -0.998986
vn 0.0175887 0.04144 -0.998986
vn 0.999413 0.0342285 -0.00136136
vn 0.999413 0.0342285 -0.00136135
vn 0.999243 0.0343003 -0.0183721
vn 0.999243 0.0343003 -0.0183721
vn -0.99925 0.0341332 0.0182827
vn -0.99925 0.0341332 0.0182827
vn 0.99925 0.0341332 0.0182826
vn 0.99925 0.0341332 0.0182826
vn -0.0175701 0.0413961 -0.998988
vn -0.0175701 0.0413961 -0.998988
vn -0.0175702 0.0413961 0.998988
vn 0.0701463 0.363517 0.928943
vn 0.0701463 0.363517 0.928943
vn 0.0701463 0.363518 0.928943
vn -0.897935 -1.78831e-08 0.440128
vn -0.897935 -1.78831e-08 0.440128
vn -0.219109 -0.30676 0.926223
vn -0.219109 -0.306759 0.926223
vn -0.219109 -0.306759 0.926223
vn -0.219109 -0.306759 0.926223
vn 0.905765 -1.79997e-08 0.423781
vn 0.905765 -1.79997e-08 0.423781
vn 0.905765 -1.79997e-08 0.423781
vn -0.0701465 0.363518 0.928943
vn -0.0701465 0.363518 0.928943
vn -0.0701465 0.363518 0.928943
vn 0.21911 -0.306759 0.926223
vn 0.21911 -0.306759 0.926223
vn 0.21911 -0.306759 0.926223
vn -0.943582 0.321736 -0.0783472
vn -0.943582 0.321736 -0.0783472
vn -0.943582 0.321736 -0.0783472
vn -0.943582 0.321736 -0.0783472
vn -0.946085 -0.240602 0.216872
vn -0.946085 -0.240602 0.216872
vn -0.946085 -0.240602 0.216872
vn -0.580156 -9.47288e-09 0.814505
vn -0.580156 -9.47288e-09 0.814506
vn -0.580156 -9.47288e-09 0.814506
vn -0.580156 -9.47288e-09 0.814506
vn -0.943582 0.321736 0.0783469
vn -0.943582 0.321736 0.0783469
vn -0.943582 0.321736 0.0783469
vn -0.523125 1.96251e-08 -0.852256
vn -0.523125 1.96251e-08 -0.852256
vn -0.523125 1.96251e-08 -0.852256
vn -0.946085 -0.240602 -0.216873
vn -0.946085 -0.240602 -0.216873
vn -0.946085 -0.240602 -0.216873
vn -0.946085 -0.240602 -0.216873
vn -0.219109 -0.306759 -0.926223
vn -0.219109 -0.306759 -0.926223
vn -0.219109 -0.306759 -0.926223
vn -0.897935 -3.12954e-08 -0.440128
vn -0.897935 -3.12954e-08 -0.440128
vn -0.897935 -3.12954e-08 -0.440128
vn -0.897935 -3.12954e-08 -0.440128
vn 0.0701465 0.363517 -0.928943
vn 0.0701465 0.363517 -0.928943
vn 0.905765 -3.59994e-08 -0.423781
vn 0.905765 -3.59994e-08 -0.423781
vn 0.905765 -3.59994e-08 -0.423781
vn 0.21911 -0.306759 -0.926223
vn 0.21911 -0.306759 -0.926223
vn 0.21911 -0.306759 -0.926223
vn -0.0701464 0.363518 -0.928943
vn -0.0701464 0.363518 -0.928943
vn -0.0701464 0.363518 -0.928943
vn -0.0701465 0.363518 -0.928943
vn 0.943582 0.321736 -0.0783472
vn 0.943582 0.321736 -0.0783472
vn 0.943582 0.321736 -0.0783472
vn 0.580156 -9.47288e-09 0.814506
vn 0.580156 -9.47288e-09 0.814505
vn 0.580156 -9.47288e-09 0.814505
vn 0.946085 -0.240602 0.216872
vn 0.946085 -0.240602 0.216872
vn 0.946085 -0.240602 0.216872
vn 0.523125 1.47188e-08 -0.852256
vn 0.523125 1.47188e-08 -0.852256
vn 0.523125 1.47188e-08 -0.852256
vn 0.523125 1.47188e-08 -0.852256
vn 0.943582 0.321736 0.078347
vn 0.943582 0.321736 0.078347
vn 0.943582 0.321736 0.078347
vn 0.946085 -0.240602 -0.216872
vn 0.946085 -0.240602 -0.216872
vn 0.946085 -0.240602 -0.216872

# Mesh 'pCube1_pCube1' with 144 faces
g pCube1_pCube1
usemtl MATERIAL_TURRET
f  1/1/1 2/2/2 3/3/3
f  3/3/3 4/4/4 1/1/1
f  5/5/5 6/6/6 7/7/7
f  7/7/7 8/8/8 5/5/5
f  9/9/9 10/10/10 11/11/11
f  11/11/11 12/12/12 9/9/9
f  13/13/13 14/14/14 15/15/15
f  15/15/15 16/16/16 13/13/13
f  17/17/17 18/18/18 19/19/19
f  19/19/19 20/20/20 17/17/17
f  21/21/21 22/22/22 23/23/23
f  23/23/23 24/24/24 21/21/21
f  25/25/25 26/26/26 27/27/27
f  27/27/27 28/28/28 25/25/25
f  29/29/29 30/30/30 31/31/31
f  31/31/31 32/32/32 29/29/29
f  33/33/33 34/34/33 35/35/33
f  35/35/33 36/36/33 33/33/33
f  37/37/33 38/38/33 39/39/33
f  39/39/33 40/40/33 37/37/33
f  2/41/33 41/42/33 42/43/33
f  42/43/33 3/44/33 2/41/33
f  6/45/33 43/46/33 44/47/33
f  44/47/33 7/48/33 6/45/33
f  45/49/34 46/50/35 47/51/36
f  47/51/36 48/52/37 45/49/34
f  49/53/38 50/54/39 51/55/40
f  51/55/40 52/56/41 49/53/38
f  53/57/42 34/58/43 33/59/44
f  33/59/44 54/60/45 53/57/42
f  55/61/46 41/62/47 2/63/48
f  2/63/48 1/64/49 55/61/46
f  14/14/50 56/65/51 57/66/52
f  57/66/52 15/15/53 14/14/50
f  10/10/54 58/67/55 59/68/56
f  59/68/56 11/11/57 10/10/54
f  9/69/58 60/70/59 58/71/60
f  58/71/60 10/72/61 9/69/58
f  17/17/62 61/73/63 62/74/64
f  62/74/64 18/18/65 17/17/62
f  63/75/66 64/76/67 65/77/68
f  65/77/68 66/78/69 63/75/66
f  67/79/70 68/80/71 69/81/72
f  69/81/72 70/82/73 67/79/70
f  71/83/74 72/84/75 73/85/76
f  73/85/76 74/86/77 71/83/74
f  75/87/78 76/88/79 77/89/80
f  77/89/80 78/90/81 75/87/78
f  58/67/55 1/1/1 4/4/4
f  4/4/4 59/68/56 58/67/55
f  60/70/59 55/61/46 1/64/49
f  1/64/49 58/71/60 60/70/59
f  26/26/26 63/75/66 66/78/69
f  66/78/69 27/27/27 26/26/26
f  76/88/79 49/53/38 52/56/41
f  52/56/41 77/89/80 76/88/79
f  22/22/22 13/91/13 16/92/16
f  16/92/16 23/23/23 22/22/22
f  18/18/18 9/69/9 12/93/12
f  12/93/12 19/19/19 18/18/18
f  18/18/65 62/74/64 60/70/59
f  60/70/59 9/69/58 18/18/65
f  54/60/45 33/59/44 41/62/47
f  41/62/47 55/61/46 54/60/45
f  41/42/33 33/33/33 36/36/33
f  36/36/33 42/43/33 41/42/33
f  43/46/33 37/37/33 40/40/33
f  40/40/33 44/47/33 43/46/33
f  45/49/34 52/56/41 51/55/40
f  51/55/40 46/50/35 45/49/34
f  71/83/74 78/90/81 77/89/80
f  77/89/80 72/84/75 71/83/74
f  68/80/82 21/94/21 24/95/24
f  24/95/24 69/81/83 68/80/82
f  64/76/84 17/96/17 20/97/20
f  20/97/20 65/77/85 64/76/84
f  64/98/86 63/99/87 61/73/63
f  61/73/63 17/17/62 64/98/86
f  63/99/87 26/100/88 53/57/42
f  53/57/42 61/73/63 63/99/87
f  26/100/88 25/101/89 34/58/43
f  34/58/43 53/57/42 26/100/88
f  34/34/33 25/102/33 28/103/33
f  28/103/33 35/35/33 34/34/33
f  38/38/33 29/104/33 32/105/33
f  32/105/33 39/39/33 38/38/33
f  79/106/90 48/52/37 47/51/36
f  47/51/36 80/107/91 79/106/90
f  81/108/92 73/85/76 48/52/37
f  48/52/37 79/106/90 81/108/92
f  82/109/93 74/86/77 73/85/76
f  73/85/76 81/108/92 82/109/93
f  16/16/16 15/15/15 75/110/94
f  75/110/94 78/111/95 16/16/16
f  71/83/96 23/23/23 16/92/16
f  16/92/16 78/90/95 71/83/96
f  74/86/97 24/24/24 23/23/23
f  23/23/23 71/83/96 74/86/97
f  82/112/98 69/81/83 24/95/24
f  24/95/24 74/113/97 82/112/98
f  81/114/99 70/82/73 69/81/72
f  69/81/72 82/112/100 81/114/99
f  79/115/101 31/31/31 70/82/73
f  70/82/73 81/114/99 79/115/101
f  80/116/102 32/32/32 31/31/31
f  31/31/31 79/115/101 80/116/102
f  47/117/33 39/39/33 32/105/33
f  32/105/33 80/118/33 47/117/33
f  46/119/33 40/40/33 39/39/33
f  39/39/33 47/117/33 46/119/33
f  51/120/33 44/47/33 40/40/33
f  40/40/33 46/119/33 51/120/33
f  50/121/33 7/48/33 44/47/33
f  44/47/33 51/120/33 50/121/33
f  49/122/103 8/8/8 7/7/7
f  7/7/7 50/123/104 49/122/103
f  76/124/105 57/66/52 8/8/8
f  8/8/8 49/122/103 76/124/105
f  75/110/106 15/15/53 57/66/52
f  57/66/52 76/124/105 75/110/106
f  12/12/12 11/11/11 14/14/14
f  14/14/14 13/13/13 12/12/12
f  22/125/22 19/19/19 12/93/12
f  12/93/12 13/126/13 22/125/22
f  21/127/21 20/20/20 19/19/19
f  19/19/19 22/125/22 21/127/21
f  68/80/82 65/77/85 20/97/20
f  20/97/20 21/94/21 68/80/82
f  67/79/70 66/78/69 65/77/68
f  65/77/68 68/80/71 67/79/70
f  29/29/29 28/28/28 27/27/27
f  27/27/27 30/30/30 29/29/29
f  38/38/33 35/35/33 28/103/33
f  28/103/33 29/104/33 38/38/33
f  37/37/33 36/36/33 35/35/33
f  35/35/33 38/38/33 37/37/33
f  43/46/33 42/43/33 36/36/33
f  36/36/33 37/37/33 43/46/33
f  6/45/33 3/44/33 42/43/33
f  42/43/33 43/46/33 6/45/33
f  5/5/5 4/4/4 3/3/3
f  3/3/3 6/6/6 5/5/5
f  14/14/50 11/11/57 59/68/56
f  59/68/56 56/65/51 14/14/50

# Mesh 'pCube1_pCube1' with 16 faces
g pCube1_pCube1
usemtl MATERIAL_INSIDE
f  83/128/107 84/129/108 85/130/109
f  85/130/109 86/131/109 83/128/107
f  87/132/110 88/133/111 89/134/112
f  89/134/112 90/135/113 87/132/110
f  91/136/114 92/137/115 93/138/116
f  93/138/116 94/139/117 91/136/114
f  95/140/118 96/141/119 97/142/120
f  97/142/120 98/143/121 95/140/118
f  90/135/113 89/134/112 99/144/122
f  99/144/122 100/145/123 90/135/113
f  95/140/118 101/146/124 102/147/125
f  102/147/125 96/141/119 95/140/118
f  91/136/114 103/148/126 104/149/127
f  104/149/127 92/137/115 91/136/114
f  83/128/107 105/150/128 106/151/128
f  106/151/128 84/129/108 83/128/107

# Mesh 'pCube1_pCube1' with 48 faces
g pCube1_pCube1
usemtl MATERIAL_WALLS
f  84/129/129 5/5/130 8/8/131
f  8/8/131 85/130/131 84/129/129
f  85/152/132 8/153/132 57/154/133
f  57/154/133 86/155/132 85/152/132
f  86/131/134 57/66/135 56/65/136
f  56/65/136 83/128/137 86/131/134
f  105/156/138 59/157/139 4/158/140
f  4/158/140 106/159/138 105/156/138
f  106/151/141 4/4/142 5/5/143
f  5/5/143 84/129/143 106/151/141
f  83/128/144 56/65/145 59/68/145
f  59/68/145 105/150/146 83/128/144
f  88/133/147 53/57/148 54/60/149
f  54/60/149 89/134/150 88/133/147
f  90/135/151 62/74/152 61/73/151
f  61/73/151 87/132/153 90/135/151
f  87/132/154 61/73/155 53/57/156
f  53/57/156 88/133/157 87/132/154
f  89/134/158 54/60/158 55/61/159
f  55/61/159 99/144/160 89/134/158
f  99/144/161 55/61/162 60/70/163
f  60/70/163 100/145/161 99/144/161
f  100/145/164 60/70/165 62/74/166
f  62/74/166 90/135/167 100/145/164
f  92/137/168 67/79/168 70/82/169
f  70/82/169 93/138/170 92/137/168
f  93/160/171 70/161/172 31/162/173
f  31/162/173 94/163/174 93/160/171
f  94/139/175 31/31/176 30/30/176
f  30/30/176 91/136/176 94/139/175
f  103/164/177 27/165/178 66/166/178
f  66/166/178 104/167/179 103/164/177
f  104/149/180 66/78/181 67/79/181
f  67/79/181 92/137/182 104/149/180
f  91/136/183 30/30/184 27/27/185
f  27/27/185 103/148/186 91/136/183
f  96/141/187 45/49/187 48/52/188
f  48/52/188 97/142/189 96/141/187
f  97/142/190 48/52/190 73/85/191
f  73/85/191 98/143/192 97/142/190
f  98/143/193 73/85/193 72/84/194
f  72/84/194 95/140/195 98/143/193
f  101/146/196 77/89/197 52/56/198
f  52/56/198 102/147/199 101/146/196
f  102/147/200 52/56/201 45/49/202
f  45/49/202 96/141/200 102/147/200
f  95/140/203 72/84/204 77/89/204
f  77/89/204 101/146/205 95/140/203

